<?xml version="1.0" encoding="utf-8"?>
<!-- Generator: Adobe Illustrator 25.2.3, SVG Export Plug-In . SVG Version: 6.00 Build 0)  -->
<svg version="1.1" id="Layer_1" xmlns="http://www.w3.org/2000/svg" xmlns:xlink="http://www.w3.org/1999/xlink" x="0px" y="0px"
	 viewBox="0 0 48 48" style="enable-background:new 0 0 48 48;" xml:space="preserve">
<style type="text/css">
	.st0{clip-path:url(#SVGID_2_);}
	.st1{fill:#0092D3;}
	.st2{fill:#0072BA;}
	.st3{fill:#5BC7F8;}
	.st4{fill:#0E4F95;}
</style>
<g>
	<defs>
		<rect id="SVGID_1_" width="48" height="48"/>
	</defs>
	<clipPath id="SVGID_2_">
		<use xlink:href="#SVGID_1_"  style="overflow:visible;"/>
	</clipPath>
	<g class="st0">
		<path class="st1" d="M19.26,12.18h8.13l-1.78,1.78l-0.01-0.01l-0.91,0.94l-1,1l0.01,0.01l-0.66,0.68l31.69,30.96H60L33.53,21.7
			L46.39,8.66c3.03-3.03,0.88-8.21-3.4-8.21H2.59C12.16,2.74,17.49,9.52,19.26,12.18z"/>
		<path class="st1" d="M9.05,46c0.01-0.01,0.01-0.01,0.02-0.02l2.74-2.88l9.08-9.86l14.23,14.3h5.18L16.24,23.35l-4.43,4.27v-8.24
			C4.74,14.65,1.95,8.17,0.86,4.03v38.55C0.86,47.77,6.84,48.59,9.05,46z"/>
		<path class="st2" d="M40.29,47.54L16.24,23.35L5.19,34.04c0,0-2.75,2.82-4.33,2.29v6.25c0,0.81,0.15,1.52,0.4,2.12
			c0.2,0.48,0.48,0.9,0.8,1.25c0.08,0.09,0.17,0.17,0.25,0.25c0.35,0.32,0.74,0.57,1.16,0.77c0.21,0.1,0.43,0.18,0.65,0.24
			C5.9,47.74,7.94,47.3,9.05,46c0.01-0.01,0.01-0.01,0.02-0.02l2.74-2.88l9.08-9.86l14.23,14.3H40.29z"/>
		<polygon class="st3" points="20.95,18.93 18.37,21.54 32.29,35.3 37.75,35.57 		"/>
		<circle class="st2" cx="9.07" cy="9.13" r="3.05"/>
		<path class="st4" d="M9.69,6.78c-1.68,0-3.05,1.37-3.05,3.05c0,0.6,0.18,1.15,0.48,1.63c0.53,0.44,1.2,0.72,1.95,0.72
			c1.68,0,3.05-1.37,3.05-3.05c0-0.6-0.18-1.15-0.48-1.63C11.11,7.06,10.44,6.78,9.69,6.78z"/>
		<polygon class="st3" points="20.95,18.93 18.37,21.54 32.29,35.3 37.75,35.57 		"/>
		<polygon class="st4" points="20.95,18.93 18.37,21.54 32.29,35.3 37.75,35.57 		"/>
		<path class="st2" d="M54.72,47.54H60L33.53,21.7L46.39,8.66c3.03-3.03,0.88-8.21-3.4-8.21h-5.91c0.2,1.71-1.77,3.81-1.77,3.81
			l-7.92,7.92l-1.78,1.78l-0.01-0.01l-0.91,0.94l-1,1l0.01,0.01l-0.66,0.68L54.72,47.54z"/>
		<polygon class="st4" points="35.09,47.52 40.27,47.52 16.24,23.35 11.8,27.63 11.8,43.11 20.89,33.24 		"/>
		<polygon class="st4" points="54.72,47.54 60,47.54 33.53,21.7 42.92,12.18 27.39,12.18 25.61,13.96 25.59,13.95 24.68,14.89 
			23.68,15.89 23.69,15.91 23.03,16.59 		"/>
	</g>
</g>
</svg>
